<?xml version="1.0" encoding="utf-8"?>
<!-- Generator: Adobe Illustrator 14.0.0, SVG Export Plug-In . SVG Version: 6.00 Build 43363)  -->
<!DOCTYPE svg PUBLIC "-//W3C//DTD SVG 1.1//EN" "http://www.w3.org/Graphics/SVG/1.1/DTD/svg11.dtd">
<svg version="1.1" id="Layer_1" xmlns="http://www.w3.org/2000/svg" xmlns:xlink="http://www.w3.org/1999/xlink" x="0px" y="0px"
	 width="612px" height="792px" viewBox="0 0 612 792" enable-background="new 0 0 612 792" xml:space="preserve">
<g>
	<path fill="#FFFFFF" d="M48.5,97C21.714,97,0,75.286,0,48.5S21.714,0,48.5,0S97,21.714,97,48.5S75.286,97,48.5,97z M87.149,48.5
		c0-21.345-17.303-38.649-38.649-38.649C27.155,9.851,9.851,27.155,9.851,48.5S27.155,87.149,48.5,87.149
		C69.846,87.149,87.149,69.845,87.149,48.5z"/>
	<path fill="#FFFFFF" d="M53.572,3.88l16.897,6.462l7.019,11.551c-25.084,12.259-24.052,51.59-24.052,51.59S19.517,49.015,28.836,9.82L53.572,3.88z
		"/>
</g>
</svg>
