<?xml version="1.0" encoding="utf-8"?>
<!-- Generator: Adobe Illustrator 14.0.0, SVG Export Plug-In . SVG Version: 6.00 Build 43363)  -->
<!DOCTYPE svg PUBLIC "-//W3C//DTD SVG 1.0//EN" "http://www.w3.org/TR/2001/REC-SVG-20010904/DTD/svg10.dtd" [
	<!ENTITY ns_flows "http://ns.adobe.com/Flows/1.0/">
	<!ENTITY ns_extend "http://ns.adobe.com/Extensibility/1.0/">
	<!ENTITY ns_ai "http://ns.adobe.com/AdobeIllustrator/10.0/">
	<!ENTITY ns_graphs "http://ns.adobe.com/Graphs/1.0/">
]>
<svg version="1.0" id="Layer_1" xmlns:x="&ns_extend;" xmlns:i="&ns_ai;" xmlns:graph="&ns_graphs;"
	 xmlns="http://www.w3.org/2000/svg" xmlns:xlink="http://www.w3.org/1999/xlink" xmlns:a="http://ns.adobe.com/AdobeSVGViewerExtensions/3.0/"
	 x="0px" y="0px" width="612px" height="792px" viewBox="0 0 612 792" enable-background="new 0 0 612 792" xml:space="preserve">
<g>
	<path fill="#FFFFFF" d="M97,48.5C97,75.286,75.286,97,48.5,97S0,75.286,0,48.5S21.714,0,48.5,0S97,21.714,97,48.5z M48.5,9.851
		C27.155,9.851,9.851,27.155,9.851,48.5S27.155,87.149,48.5,87.149c21.346,0,38.649-17.304,38.649-38.649S69.846,9.851,48.5,9.851z"
		/>
	<path fill="#FFFFFF" d="M51.896,30.929c-1.03-1.1-2.463-2.013-3.71-2.841c-1.12-0.743-3.676-1.627-4.37-2.797
		c-1.095-1.847,3.085-0.785,3.683-0.641c2.551,0.616,5.001,1.567,7.479,2.416c15.218,5.214,39.145,18.177,24.307,45.773
		C56.527,115.164,80.311,61.292,51.896,30.929z"/>
	<path fill="#FFFFFF" d="M37.041,37.496c-0.14-3.149,2.737-13.468,0.515-9.816s-2.049,3.248-4.368,8.259C26.542,50.3,17.681,79.143,48.491,87.517
		C93.938,99.869,38.927,80.071,37.041,37.496z"/>
</g>
</svg>
