<?xml version="1.0" encoding="utf-8"?>
<!-- Generator: Adobe Illustrator 14.0.0, SVG Export Plug-In . SVG Version: 6.00 Build 43363)  -->
<!DOCTYPE svg PUBLIC "-//W3C//DTD SVG 1.1//EN" "http://www.w3.org/Graphics/SVG/1.1/DTD/svg11.dtd">
<svg version="1.1" id="Layer_1" xmlns="http://www.w3.org/2000/svg" xmlns:xlink="http://www.w3.org/1999/xlink" x="0px" y="0px"
	 width="612px" height="792px" viewBox="0 0 612 792" enable-background="new 0 0 612 792" xml:space="preserve">
<path d="M0,0v16.431c1.491,0.474,3.084-0.351,3.559-1.843c0.36,1.523,1.886,2.467,3.408,2.106c1.523-0.358,2.467-1.884,2.107-3.407
	c-0.017-0.074-0.05-0.139-0.072-0.21c0.048,0.057,0.086,0.119,0.139,0.173c1.1,1.113,2.895,1.126,4.007,0.027
	c1.114-1.1,1.127-2.893,0.029-4.008C13.122,9.214,13.059,9.174,13,9.123c0.073,0.025,0.141,0.06,0.216,0.078
	c1.519,0.38,3.057-0.543,3.436-2.061c0.38-1.518-0.541-3.057-2.059-3.438c-0.138-0.034-0.274-0.046-0.412-0.061
	c0.135-0.021,0.272-0.042,0.407-0.085C16.081,3.083,16.905,1.489,16.431,0H0z"/>
</svg>
