<?xml version="1.0" encoding="utf-8"?>
<!-- Generator: Adobe Illustrator 14.0.0, SVG Export Plug-In . SVG Version: 6.00 Build 43363)  -->
<!DOCTYPE svg PUBLIC "-//W3C//DTD SVG 1.0//EN" "http://www.w3.org/TR/2001/REC-SVG-20010904/DTD/svg10.dtd" [
	<!ENTITY ns_flows "http://ns.adobe.com/Flows/1.0/">
	<!ENTITY ns_extend "http://ns.adobe.com/Extensibility/1.0/">
	<!ENTITY ns_ai "http://ns.adobe.com/AdobeIllustrator/10.0/">
	<!ENTITY ns_graphs "http://ns.adobe.com/Graphs/1.0/">
]>
<svg version="1.0" id="Layer_1" xmlns:x="&ns_extend;" xmlns:i="&ns_ai;" xmlns:graph="&ns_graphs;"
	 xmlns="http://www.w3.org/2000/svg" xmlns:xlink="http://www.w3.org/1999/xlink" xmlns:a="http://ns.adobe.com/AdobeSVGViewerExtensions/3.0/"
	 x="0px" y="0px" width="612px" height="792px" viewBox="0 0 612 792" enable-background="new 0 0 612 792" xml:space="preserve">
<path fill="#FFFFFF" d="M17.896,7.437c1.888,0,3.424,1.536,3.424,3.423c0,1.887-1.536,3.423-3.424,3.423
	c-1.887,0-3.423-1.536-3.423-3.423C14.473,8.972,16.008,7.437,17.896,7.437L17.896,7.437z M15.644,6.113
	c0.659-0.314,1.387-0.501,2.161-0.515c-0.784-2.71-2.433-5.494-4.722-5.494c-3.176,0-5.613,7.357-6.895,14.482
	c-0.436-1.864-0.75-4.293-3.889-6.499l-2.183,2.909c4.134,1.956,4.867,8.869,4.877,8.95l2.382,0.016
	c0.842-6.778,3.624-17.631,5.708-17.631C14.222,2.331,15.059,4.106,15.644,6.113z"/>
</svg>
