<?xml version="1.0" encoding="utf-8"?>
<!-- Generator: Adobe Illustrator 14.0.0, SVG Export Plug-In . SVG Version: 6.00 Build 43363)  -->
<!DOCTYPE svg PUBLIC "-//W3C//DTD SVG 1.0//EN" "http://www.w3.org/TR/2001/REC-SVG-20010904/DTD/svg10.dtd" [
	<!ENTITY ns_flows "http://ns.adobe.com/Flows/1.0/">
	<!ENTITY ns_extend "http://ns.adobe.com/Extensibility/1.0/">
	<!ENTITY ns_ai "http://ns.adobe.com/AdobeIllustrator/10.0/">
	<!ENTITY ns_graphs "http://ns.adobe.com/Graphs/1.0/">
]>
<svg version="1.0" id="Layer_1" xmlns:x="&ns_extend;" xmlns:i="&ns_ai;" xmlns:graph="&ns_graphs;"
	 xmlns="http://www.w3.org/2000/svg" xmlns:xlink="http://www.w3.org/1999/xlink" xmlns:a="http://ns.adobe.com/AdobeSVGViewerExtensions/3.0/"
	 x="0px" y="0px" width="612px" height="792px" viewBox="0 0 612 792" enable-background="new 0 0 612 792" xml:space="preserve">
<g>
	<path fill="#FFFFFF" d="M97,48.5C97,75.286,75.286,97,48.5,97S0,75.286,0,48.5S21.714,0,48.5,0S97,21.714,97,48.5z M48.5,9.851
		C27.155,9.851,9.851,27.155,9.851,48.5S27.155,87.149,48.5,87.149c21.346,0,38.649-17.304,38.649-38.649S69.846,9.851,48.5,9.851z"
		/>
	<path fill="#FFFFFF" d="M14.217,22.672c0,0,24.493,1.049,33.055,16.112C50.089,43.74,71.605,14.002,60.47,7.055
		c-4.588-2.863-24.009-0.926-24.009-0.926L14.217,22.672z"/>
	<path fill="#FFFFFF" d="M89.262,34.799c0,0-14.535,19.741-31.814,18.44c-5.686-0.428,6.988,34.021,18.967,28.657
		c4.937-2.21,14.164-19.407,14.164-19.407L89.262,34.799z"/>
	<path fill="#FFFFFF" d="M47.866,91.498c0,0-13.783-20.272-6.811-36.136c2.294-5.219-34.408-4.723-33.334,8.357
		c0.442,5.391,13.593,19.812,13.593,19.812L47.866,91.498z"/>
</g>
</svg>
