<?xml version="1.0" encoding="utf-8"?>
<!-- Generator: Adobe Illustrator 14.0.0, SVG Export Plug-In . SVG Version: 6.00 Build 43363)  -->
<!DOCTYPE svg PUBLIC "-//W3C//DTD SVG 1.0//EN" "http://www.w3.org/TR/2001/REC-SVG-20010904/DTD/svg10.dtd" [
	<!ENTITY ns_flows "http://ns.adobe.com/Flows/1.0/">
	<!ENTITY ns_extend "http://ns.adobe.com/Extensibility/1.0/">
	<!ENTITY ns_ai "http://ns.adobe.com/AdobeIllustrator/10.0/">
	<!ENTITY ns_graphs "http://ns.adobe.com/Graphs/1.0/">
]>
<svg version="1.0" id="Layer_1" xmlns:x="&ns_extend;" xmlns:i="&ns_ai;" xmlns:graph="&ns_graphs;"
	 xmlns="http://www.w3.org/2000/svg" xmlns:xlink="http://www.w3.org/1999/xlink" xmlns:a="http://ns.adobe.com/AdobeSVGViewerExtensions/3.0/"
	 x="0px" y="0px" width="612px" height="792px" viewBox="0 0 612 792" enable-background="new 0 0 612 792" xml:space="preserve">
<g>
	<path d="M97,48.5C97,75.286,75.286,97,48.5,97S0,75.286,0,48.5S21.714,0,48.5,0S97,21.714,97,48.5z M48.5,9.851
		C27.155,9.851,9.851,27.155,9.851,48.5S27.155,87.149,48.5,87.149c21.346,0,38.649-17.304,38.649-38.649S69.846,9.851,48.5,9.851z"
		/>
	<path d="M30,87C16,49,50.5,21,50.5,21s2.75,39.25,31.25,48.75L75.25,82L57.5,90.25L30,87z"/>
</g>
</svg>
